<svg xmlns="http://www.w3.org/2000/svg" version="1.1" width="100" height="100" preserveAspectRatio="none" viewBox="0 0 100 100">
    <defs>
        <mask id="SvgjsMask1137">
            <rect width="100" height="100" fill="#ffffff"></rect>
        </mask>
    </defs>
    <g mask="url(#SvgjsMask1137)" fill="none">
        <rect width="100" height="100" x="0" y="0" fill="rgba(148,155,154,1)"></rect>
        <path d="M101.67 100L0 100 L0 21.58Q4.64 17.89, 8.33 22.53Q17.95 23.81, 16.67 33.43Q23.29 35.05, 21.67 41.68Q17.2 32.22, 26.67 27.75Q36.48 32.56, 31.67 42.38Q25.03 30.74, 36.67 24.1Q44.47 26.91, 41.67 34.71Q47.05 35.09, 46.67 40.47Q39.66 28.46, 51.67 21.46Q64.42 29.21, 56.67 41.96Q51.25 28.21, 65 22.79Q73.48 22.93, 73.33 31.41Q80.13 33.2, 78.33 40Q70.92 27.59, 83.33 20.17Q93.19 25.03, 88.33 34.88Q94.52 32.74, 96.67 38.93Q92.11 29.38, 101.67 24.82z" fill="rgba(87,90,91,1)"></path>
        <path d="M105 100L0 100 L0 43.23Q5.69 40.58, 8.33 46.27Q17.76 47.36, 16.67 56.79Q10.48 42.27, 25 36.09Q37.37 40.13, 33.33 52.5Q38.4 49.23, 41.67 54.3Q35.14 42.77, 46.67 36.25Q53.82 35.07, 55 42.23Q63.29 45.52, 60 53.8Q55.36 40.83, 68.33 36.19Q71.12 33.97, 73.33 36.76Q84.97 43.39, 78.33 55.03Q80.81 49.18, 86.67 51.66Q83.58 40.24, 95 37.15Q101.86 39.01, 100 45.87Q102.86 43.73, 105 46.6z" fill="rgba(65,68,67,1)"></path>
        <path d="M105 100L0 100 L0 52.88Q8.93 53.47, 8.33 62.4Q18.18 63.92, 16.67 73.77Q15.07 67.17, 21.67 65.57Q17.73 56.63, 26.67 52.7Q39.36 57.06, 35 69.75Q35.47 61.88, 43.33 62.35Q50.32 61.01, 51.67 68Q51.02 62.36, 56.67 61.71Q57.25 57.29, 61.67 57.87Q65.04 52.91, 70 56.29Q83.03 60.99, 78.33 74.02Q78.05 68.73, 83.33 68.45Q80.42 57.2, 91.67 54.29Q99.42 57.04, 96.67 64.79Q98.66 58.45, 105 60.45z" fill="rgba(68,73,68,1)"></path>
        <path d="M103.33 100L0 100 L0 81.66Q-3.81 72.84, 5 69.03Q15.25 74.28, 10 84.54Q6.69 72.9, 18.33 69.59Q27.89 70.81, 26.67 80.37Q31.41 76.78, 35 81.52Q35.8 77.31, 40 78.11Q46.12 79.22, 45 85.34Q51.67 83.67, 53.33 90.34Q47.73 76.4, 61.67 70.8Q72.86 73.66, 70 84.86Q66.97 76.83, 75 73.79Q84.22 78.01, 80 87.23Q81.93 84.16, 85 86.08Q83.81 76.55, 93.33 75.36Q93.82 70.85, 98.33 71.34Q104.68 72.69, 103.33 79.04z" fill="rgba(86,79,76,1)"></path>
        <path d="M105 100L0 100 L0 94.39Q9.15 95.2, 8.33 104.35Q2.51 90.19, 16.67 84.37Q28.03 87.4, 25 98.77Q21.8 87.23, 33.33 84.03Q41.32 87.02, 38.33 95Q45.9 97.56, 43.33 105.13Q37.39 90.85, 51.67 84.91Q56.74 84.98, 56.67 90.06Q66.1 91.16, 65 100.6Q62.12 92.72, 70 89.83Q72.36 87.19, 75 89.56Q85.33 91.56, 83.33 101.89Q80.17 90.39, 91.67 87.23Q94.25 81.48, 100 84.06Q112.77 91.84, 105 104.61z" fill="rgba(121,115,109,1)"></path>
    </g>
</svg>
