<svg xmlns="http://www.w3.org/2000/svg"><defs><pattern id="a" width="80" height="80" patternUnits="userSpaceOnUse"><rect width="100%" height="100%" fill="#fff" fill-opacity="0"/><path fill="none" stroke="#fffdf5" stroke-linecap="square" stroke-width="2" d="m69.84 0-7.86 7.86L54.1 0l7.87-7.86zm18.02 18.02L80 25.88l-7.86-7.86L80 10.16zm-80 43.96L0 69.84l-7.86-7.86L0 54.1zM25.88 80l-7.86 7.86L10.16 80l7.86-7.86zm36.1-7.86L69.84 80l-7.86 7.86L54.1 80zM80 54.1l7.86 7.87L80 69.84l-7.86-7.86zM0 10.16l7.86 7.86L0 25.88l-7.86-7.86zM18.02-7.86 25.88 0l-7.86 7.86L10.16 0z"/><path fill="none" stroke="#e5fbff" stroke-linecap="square" stroke-width="2" d="M48.1 80c0 4.47-3.63 8.1-8.1 8.09A8.1 8.1 0 1 1 48.1 80zm6.26-40H71.6M40 71.9V54.38m0-28.74V8.09m5.24 12.3a20.3 20.3 0 0 1 14.37 14.37m0 10.48a20.3 20.3 0 0 1-14.38 14.37m-10.48 0A20.3 20.3 0 0 1 20.4 45.24m0-10.48a20.3 20.3 0 0 1 14.37-14.37M5.72 45.72A8.1 8.1 0 1 1-6.22 34.78 8.1 8.1 0 0 1 5.72 45.72zm80 0a8.1 8.1 0 1 1-11.94-10.94 8.1 8.1 0 0 1 11.94 10.94zM48.09 0c0 4.47-3.62 8.1-8.09 8.09A8.07 8.07 0 0 1 31.9 0a8.1 8.1 0 0 1 16.2 0zM40 25.63 54.37 40 40 54.37 25.63 40zm5.72-19.91 28.1 29.02m.22 11.22L45.72 74.28m-11.44 0L5.72 45.72M5.24 34.3 34.28 5.72M8.08 40h17.55"/></pattern></defs><rect width="800%" height="800%" fill="url(#a)"/></svg>