<svg xmlns="http://www.w3.org/2000/svg" version="1.1"  width="100" height="100" preserveAspectRatio="none" viewBox="0 0 100 100">
    <defs>
        <mask id="SvgjsMask1213">
            <rect width="100" height="100" fill="#ffffff"></rect>
        </mask>
    </defs>
    <g mask="url(#SvgjsMask1213)" fill="none">
        <rect width="100" height="100" x="0" y="0" fill="rgba(0, 75, 78, 1)"></rect>
        <path d="M108.33333333333333 100L0 100 L0 40.93Q-1.85 34.08, 5 32.22Q1.83 24.05, 10 20.87Q15.19 17.72, 18.333333333333336 22.91Q28.78 25.02, 26.66666666666667 35.47Q30.83 31.3, 35.00000000000001 35.47Q37.87 33.34, 40.00000000000001 36.21Q44.51 32.38, 48.33333333333334 36.89Q45.81 26.03, 56.66666666666668 23.5Q64.96 23.46, 65.00000000000001 31.76Q74.43 32.86, 73.33333333333334 42.29Q67.16 27.79, 81.66666666666667 21.62Q89.37 24.32, 86.66666666666667 32.02Q95.97 32.99, 95 42.3Q86.92 29.22, 100 21.15Q107.59 20.4, 108.33333333333333 27.99z" fill="rgba(8, 103, 100, 1)"></path>
        <path d="M104.99999999999999 100L0 100 L0 52.18Q1.64 45.49, 8.333333333333334 47.13Q15.42 45.88, 16.666666666666668 52.97Q13.44 41.41, 25 38.18Q33.94 38.78, 33.333333333333336 47.72Q42.7 48.76, 41.66666666666667 58.13Q35.24 43.37, 50.00000000000001 36.94Q58.67 37.27, 58.33333333333334 45.94Q68.58 47.85, 66.66666666666667 58.09Q61.13 44.22, 75 38.68Q82.06 37.4, 83.33333333333333 44.46Q93.82 46.61, 91.66666666666666 57.1Q91.63 52.06, 96.66666666666666 52.02Q93.31 40.33, 104.99999999999999 36.97z" fill="rgba(30, 61, 106, 1)"></path>
        <path d="M101.66666666666666 100L0 100 L0 55.98Q9.26 56.9, 8.333333333333334 66.16Q6.77 56.26, 16.666666666666668 54.69Q28.72 58.41, 25 70.47Q27.61 64.74, 33.333333333333336 67.35Q30.16 55.84, 41.66666666666667 52.66Q45.67 48.33, 50.00000000000001 52.33Q62.29 56.29, 58.33333333333334 68.58Q59.05 60.96, 66.66666666666667 61.67Q72.28 58.95, 75 64.57Q77.02 58.25, 83.33333333333333 60.27Q89.12 61.06, 88.33333333333333 66.84Q92.43 65.94, 93.33333333333333 70.03Q95.72 64.08, 101.66666666666666 66.46z" fill="rgba(53, 88, 57, 1)"></path>
        <path d="M101.66666666666667 100L0 100 L0 86.5Q-5.16 76.34, 5 71.18Q14.62 75.8, 10 85.42Q6.15 76.57, 15 72.72Q21.03 70.42, 23.333333333333336 76.45Q32.72 77.5, 31.66666666666667 86.89Q26.42 73.31, 40.00000000000001 68.06Q53.03 72.76, 48.33333333333334 85.79Q52.26 84.72, 53.33333333333334 88.64Q53.2 80.17, 61.66666666666668 80.04Q58.56 71.94, 66.66666666666669 68.83Q79.92 77.09, 71.66666666666669 90.34Q70.31 80.65, 80.00000000000001 79.29Q77.31 71.6, 85.00000000000001 68.91Q99.55 75.13, 93.33333333333334 89.68Q92.31 80.32, 101.66666666666667 79.3z" fill="rgba(24, 139, 165, 1)"></path>
        <path d="M105 100L0 100 L0 101.86Q-0.08 93.45, 8.333333333333334 93.37Q6.16 86.2, 13.333333333333334 84.03Q26.1 91.8, 18.333333333333336 104.57Q15.64 93.54, 26.66666666666667 90.84Q25.76 84.94, 31.66666666666667 84.03Q44.59 91.95, 36.66666666666667 104.87Q37.24 100.44, 41.66666666666667 101.02Q36.07 90.42, 46.66666666666667 84.82Q60.14 89.96, 55.00000000000001 103.43Q56.64 96.74, 63.33333333333334 98.38Q60.23 90.28, 68.33333333333334 87.18Q78.91 89.42, 76.66666666666667 100Q76.37 94.7, 81.66666666666667 94.4Q86.58 94.31, 86.66666666666667 99.23Q83.56 91.13, 91.66666666666667 88.02Q102.74 94.09, 96.66666666666667 105.17Q95.31 95.48, 105 94.12z" fill="rgba(109, 209, 158, 1)"></path>
    </g>
</svg>
