<svg xmlns="http://www.w3.org/2000/svg" version="1.1" width="100" height="100" preserveAspectRatio="none" viewBox="0 0 100 100">
    <defs>
        <mask id="SvgjsMask1173">
            <rect width="100" height="100" fill="#ffffff"></rect>
        </mask>
    </defs>
    <g mask="url(#SvgjsMask1173)" fill="none">
        <rect width="100" height="100" x="0" y="0" fill="rgba(255, 240, 180, 1)"></rect>
        <path d="M108.33333333333333 100L0 100 L0 42Q3.08 36.74, 8.333333333333334 39.82Q7.14 30.29, 16.666666666666668 29.1Q18.89 26.33, 21.666666666666668 28.55Q21.26 23.14, 26.666666666666668 22.73Q28.54 19.61, 31.666666666666668 21.48Q41.26 26.07, 36.66666666666667 35.66Q35.39 29.38, 41.66666666666667 28.1Q51.53 29.63, 50.00000000000001 39.49Q43.55 28.04, 55.00000000000001 21.58Q60.71 18.95, 63.33333333333334 24.66Q71.87 28.2, 68.33333333333334 36.73Q71.26 34.66, 73.33333333333334 37.58Q75.84 35.09, 78.33333333333334 37.6Q79.41 30.34, 86.66666666666667 31.42Q85.2 21.62, 95 20.15Q108.54 28.69, 100 42.23Q98.51 32.41, 108.33333333333333 30.92z" fill="rgba(255, 200, 160, 1)"></path>
        <path d="M101.66666666666667 100L0 100 L0 49.14Q-2.7 41.44, 5 38.74Q15.65 44.39, 10 55.05Q3.15 43.2, 15 36.34Q22.17 35.18, 23.333333333333336 42.35Q32.52 43.2, 31.66666666666667 52.39Q29.44 41.83, 40.00000000000001 39.61Q47.51 42.12, 45.00000000000001 49.63Q45.57 41.87, 53.33333333333334 42.44Q63.75 44.52, 61.66666666666668 54.94Q65.18 53.45, 66.66666666666669 56.97Q66.89 52.19, 71.66666666666669 52.41Q70.26 42.67, 80.00000000000001 41.27Q89.08 45.34, 85.00000000000001 54.42Q90.33 51.41, 93.33333333333334 56.74Q91.27 46.35, 101.66666666666667 44.29z" fill="rgba(255, 180, 170, 1)"></path>
        <path d="M106.66666666666666 100L0 100 L0 57.99Q2.19 51.84, 8.333333333333334 54.03Q15.6 52.96, 16.666666666666668 60.23Q24.57 63.13, 21.666666666666668 71.03Q20.15 64.51, 26.666666666666668 62.99Q28.08 56.07, 35 57.49Q44.52 62.01, 40 71.53Q34.52 61.05, 45 55.56Q47.47 53.03, 50 55.51Q55.26 52.43, 58.333333333333336 57.69Q69.25 60.28, 66.66666666666667 71.2Q60.53 60.06, 71.66666666666667 53.93Q75.24 49.17, 80 52.74Q83.66 51.41, 85 55.07Q98.24 59.97, 93.33333333333333 73.21Q86.88 61.75, 98.33333333333333 55.3Q102.43 51.06, 106.66666666666666 55.16z" fill="rgba(230, 150, 140, 1)"></path>
        <path d="M104.99999999999999 100L0 100 L0 90.15Q-5.83 79.32, 5 73.49Q9.54 69.7, 13.333333333333334 74.24Q23.27 75.84, 21.666666666666668 85.78Q20.74 76.52, 30 75.6Q33.82 74.42, 35 78.24Q44.18 79.08, 43.333333333333336 88.26Q38.21 78.14, 48.333333333333336 73.01Q58.79 75.13, 56.66666666666667 85.59Q57.85 78.44, 65 79.63Q63.52 69.82, 73.33333333333333 68.34Q84.23 74.24, 78.33333333333333 85.14Q83.02 81.5, 86.66666666666666 86.19Q90.53 81.72, 94.99999999999999 85.59Q92.95 78.55, 99.99999999999999 76.5Q106.72 78.22, 104.99999999999999 84.95z" fill="rgba(255, 190, 150, 1)"></path>
        <path d="M103.33333333333333 100L0 100 L0 87.33Q11.83 90.83, 8.333333333333334 102.66Q8.03 97.36, 13.333333333333334 97.06Q11.55 86.94, 21.666666666666668 85.16Q31.89 87.05, 30 97.27Q28.44 90.71, 35 89.15Q40.59 89.74, 40 95.33Q47.89 98.22, 45 106.11Q42.74 95.52, 53.333333333333336 93.26Q59.39 94.31, 58.333333333333336 100.37Q55.42 89.12, 66.66666666666667 86.21Q68.8 83.34, 71.66666666666667 85.47Q73.55 82.35, 76.66666666666667 84.24Q82.86 82.1, 85 88.29Q93.2 91.49, 90 99.68Q86.87 88.21, 98.33333333333333 85.08Q110.67 92.41, 103.33333333333333 104.75z" fill="rgba(255, 160, 160, 1)"></path>
    </g>
</svg>