<svg xmlns="http://www.w3.org/2000/svg" version="1.1" width="100" height="100" preserveAspectRatio="none" viewBox="0 0 100 100">
    <defs>
        <mask id="SvgjsMask1194">
            <rect width="100" height="100" fill="#ffffff"></rect>
        </mask>
    </defs>
    <g mask="url(#SvgjsMask1194)" fill="none">
        <rect width="100" height="100" x="0" y="0" fill="rgba(200, 150, 140, 1)"></rect>
        <path d="M103.33333333333333 100L0 100 L0 33.27Q4.67 29.6, 8.333333333333334 34.27Q12.76 33.7, 13.333333333333334 38.12Q11.17 27.62, 21.666666666666668 25.46Q28.23 27.03, 26.666666666666668 33.59Q23.43 25.35, 31.666666666666668 22.11Q44.61 26.72, 40 39.66Q43.44 34.76, 48.333333333333336 38.2Q48.05 32.92, 53.333333333333336 32.63Q52.35 23.31, 61.66666666666667 22.33Q66.98 22.64, 66.66666666666667 27.95Q76.45 29.4, 75 39.18Q70.61 29.79, 80 25.4Q90.32 30.72, 85 41.05Q80.29 31.34, 90 26.63Q101.92 30.22, 98.33333333333333 42.14Q94.44 33.25, 103.33333333333333 29.35z" fill="rgba(255, 180, 170, 1)"></path>
        <path d="M103.33333333333333 100L0 100 L0 36.35Q13.58 41.59, 8.333333333333334 55.17Q3.49 45.33, 13.333333333333334 40.49Q24.55 46.7, 18.333333333333336 57.92Q20.77 52.02, 26.66666666666667 54.46Q23.53 42.99, 35.00000000000001 39.85Q39.08 38.92, 40.00000000000001 43Q50.69 45.35, 48.33333333333334 56.04Q46.63 46, 56.66666666666668 44.3Q56.99 36.29, 65.00000000000001 36.61Q70.45 33.72, 73.33333333333334 39.17Q84.19 41.69, 81.66666666666667 52.55Q83.97 46.52, 90 48.83Q88.24 38.73, 98.33333333333333 36.97Q109.05 42.69, 103.33333333333333 53.41z" fill="rgba(230, 190, 180, 1)"></path>
        <path d="M103.33333333333333 100L0 100 L0 68.65Q-0.95 62.7, 5 61.74Q9.67 58.08, 13.333333333333334 62.75Q13.18 57.6, 18.333333333333336 57.45Q27.08 57.86, 26.66666666666667 66.61Q32.04 66.98, 31.66666666666667 72.35Q27.92 60.27, 40.00000000000001 56.52Q45.71 57.23, 45.00000000000001 62.93Q52.86 65.78, 50.00000000000001 73.64Q41.84 60.48, 55.00000000000001 52.31Q62.91 55.22, 60.00000000000001 63.13Q69.39 64.19, 68.33333333333334 73.58Q63.5 63.75, 73.33333333333334 58.91Q82.19 62.77, 78.33333333333334 71.62Q77.06 62.02, 86.66666666666667 60.75Q88.67 54.42, 95 56.42Q103.54 56.62, 103.33333333333333 65.16z" fill="rgba(210, 170, 160, 1)"></path>
        <path d="M105 100L0 100 L0 85.93Q3.29 84.22, 5 87.51Q2.96 77.13, 13.333333333333334 75.09Q21.39 74.82, 21.666666666666668 82.88Q22.41 75.29, 30 76.04Q30.02 71.06, 35 71.08Q44.94 76.02, 40 85.95Q43.47 84.42, 45 87.89Q41.98 76.53, 53.333333333333336 73.51Q56.42 71.6, 58.333333333333336 74.69Q61.46 72.82, 63.333333333333336 75.95Q67.2 74.82, 68.33333333333334 78.69Q76.64 82, 73.33333333333334 90.3Q75.81 87.78, 78.33333333333334 90.26Q76.47 83.4, 83.33333333333334 81.53Q81.17 71.03, 91.66666666666667 68.87Q106.19 75.06, 100 89.58Q97.33 81.91, 105 79.25z" fill="rgba(200, 160, 150, 1)"></path>
    </g>
</svg>