<svg xmlns="http://www.w3.org/2000/svg" version="1.1" width="100" height="100" preserveAspectRatio="none" viewBox="0 0 100 100">
    <defs>
        <mask id="SvgjsMask1233">
            <rect width="100" height="100" fill="#ffffff"></rect>
        </mask>
    </defs>
    <g mask="url(#SvgjsMask1233)" fill="none">
        <rect width="100" height="100" x="0" y="0" fill="rgba(168,167,166,1)"></rect>
        <path d="M103.33333333333333 100L0 100 L0 35.39Q-3.45 26.95, 5 23.5Q16.12 29.63, 10 40.75Q2.47 28.21, 15 20.68Q24.29 21.63, 23.333333333333336 30.92Q33.02 32.27, 31.66666666666667 41.96Q33.82 35.78, 40.00000000000001 37.94Q37.02 26.62, 48.33333333333334 23.64Q50.27 20.58, 53.33333333333334 22.52Q65.62 29.8, 58.33333333333334 42.09Q55.46 34.22, 63.33333333333334 31.34Q60.3 23.3, 68.33333333333334 20.27Q83.55 27.15, 76.66666666666667 42.37Q73.41 34.11, 81.66666666666667 30.86Q90.41 31.27, 90 40.01Q84.21 25.89, 98.33333333333333 20.1Q111.69 28.46, 103.33333333333333 41.81z" fill="rgba(162,166,165,1)"></path>
        <path d="M108.33333333333333 100L0 100 L0 57.15Q-1.76 50.38, 5 48.62Q2.32 40.94, 10 38.26Q14.14 37.4, 15 41.54Q24.4 42.6, 23.333333333333336 52Q25.03 48.7, 28.333333333333336 50.39Q27.23 44.28, 33.333333333333336 43.18Q43.18 44.69, 41.66666666666667 54.54Q38.78 43.32, 50.00000000000001 40.43Q59.18 44.61, 55.00000000000001 53.78Q56.41 46.85, 63.33333333333334 48.26Q60.26 40.19, 68.33333333333334 37.11Q73.81 34.25, 76.66666666666667 39.72Q84.83 42.88, 81.66666666666667 51.04Q78.96 43.33, 86.66666666666667 40.62Q97.62 43.24, 95 54.2Q95.63 49.83, 100 50.45Q97.03 39.14, 108.33333333333333 36.17z" fill="rgba(90,89,90,1)"></path>
        <path d="M108.33333333333331 100L0 100 L0 58.74Q6.33 56.74, 8.333333333333334 63.07Q10.86 60.59, 13.333333333333334 63.12Q16.45 57.9, 21.666666666666668 61.02Q24.63 55.65, 30 58.61Q35.77 56.04, 38.333333333333336 61.81Q47.57 62.71, 46.66666666666667 71.95Q50.05 70.34, 51.66666666666667 73.72Q52.36 69.41, 56.66666666666667 70.11Q54.56 59.67, 65 57.56Q67.58 51.8, 73.33333333333333 54.38Q85.99 58.7, 81.66666666666666 71.36Q78.8 60.16, 89.99999999999999 57.3Q94.2 56.5, 94.99999999999999 60.7Q104.29 65, 99.99999999999999 74.29Q94.65 60.6, 108.33333333333331 55.25z" fill="rgba(104,106,104,1)"></path>
        <path d="M103.33333333333333 100L0 100 L0 73.97Q3.26 68.89, 8.333333333333334 72.15Q15.64 71.12, 16.666666666666668 78.43Q26.81 80.24, 25 90.38Q28.75 85.79, 33.333333333333336 89.54Q25.62 76.83, 38.333333333333336 69.12Q50.99 73.44, 46.66666666666667 86.1Q44.2 75.3, 55.00000000000001 72.84Q63.29 72.8, 63.33333333333334 81.09Q67.28 76.71, 71.66666666666667 80.66Q70.35 71.01, 80 69.7Q85.56 70.27, 85 75.83Q94.59 80.42, 90 90.01Q83.05 78.06, 95 71.11Q99.34 67.11, 103.33333333333333 71.45z" fill="rgba(80,80,80,1)"></path>
        <path d="M106.66666666666664 100L0 100 L0 94.88Q0.03 89.91, 5 89.95Q15.15 91.76, 13.333333333333334 101.91Q16.16 96.4, 21.666666666666668 99.22Q19.26 88.48, 30 86.08Q35.68 86.76, 35 92.44Q44.82 93.93, 43.333333333333336 103.75Q43.09 95.17, 51.66666666666667 94.93Q54.47 89.4, 60.00000000000001 92.21Q64.04 91.25, 65 95.28Q74.21 96.15, 73.33333333333333 105.36Q67.08 90.77, 81.66666666666666 84.52Q94.59 89.11, 89.99999999999999 102.04Q88.08 91.78, 98.33333333333331 89.86Q108.87 92.06, 106.66666666666664 102.6z" fill="rgba(141,141,141,1)"></path>
    </g>
</svg>
