<svg xmlns="http://www.w3.org/2000/svg" version="1.1" width="100" height="100" preserveAspectRatio="none" viewBox="0 0 100 100">
    <defs>
        <mask id="SvgjsMask1220">
            <rect width="100" height="100" fill="#ffffff"></rect>
        </mask>
    </defs>
    <g mask="url(#SvgjsMask1220)" fill="none">
        <rect width="100" height="100" x="0" y="0" fill="rgba(28,25,31,1)"></rect>
        <path d="M103.33333333333333 100L0 100 L0 41.68Q-2.06 34.62, 5 32.56Q5.38 24.6, 13.333333333333334 24.98Q20.44 27.09, 18.333333333333336 34.2Q21.04 28.57, 26.66666666666667 31.27Q24.47 24.07, 31.66666666666667 21.88Q39.68 21.56, 40.00000000000001 29.57Q48.33 32.89, 45.00000000000001 41.22Q39.04 30.26, 50.00000000000001 24.3Q62.79 28.75, 58.33333333333334 41.54Q51.24 29.45, 63.33333333333334 22.36Q74.1 28.13, 68.33333333333334 38.9Q70.27 32.5, 76.66666666666667 34.44Q73.73 26.5, 81.66666666666667 23.56Q92.56 26.12, 90 37.02Q93.1 35.13, 95 38.23Q95.19 30.08, 103.33333333333333 30.27z" fill="rgba(45,52,51,1)"></path>
        <path d="M106.66666666666666 100L0 100 L0 52.36Q1.89 45.91, 8.333333333333334 47.8Q12.22 46.69, 13.333333333333334 50.57Q20.84 49.74, 21.666666666666668 57.25Q19.44 50.02, 26.666666666666668 47.79Q25.64 38.43, 35 37.41Q42.47 39.88, 40 47.35Q47.68 50.03, 45 57.71Q47.98 52.35, 53.333333333333336 55.33Q50.64 47.63, 58.333333333333336 44.94Q58.04 39.65, 63.333333333333336 39.36Q69.13 36.82, 71.66666666666667 42.62Q81.15 47.1, 76.66666666666667 56.58Q75.7 47.28, 85 46.31Q90.35 46.66, 90 52.01Q93.78 47.46, 98.33333333333333 51.24Q96.81 41.39, 106.66666666666666 39.87z" fill="rgba(51,48,53,1)"></path>
        <path d="M101.66666666666667 100L0 100 L0 66.86Q5.78 67.64, 5 73.42Q-0.53 59.55, 13.333333333333334 54.02Q20.4 56.09, 18.333333333333336 63.16Q26.15 65.97, 23.333333333333336 73.79Q16.71 58.83, 31.66666666666667 52.2Q45.13 57.33, 40.00000000000001 70.8Q35.03 57.49, 48.33333333333334 52.52Q62.29 58.14, 56.66666666666668 72.1Q52.01 62.44, 61.66666666666668 57.78Q63.59 51.37, 70.00000000000001 53.29Q72.64 50.93, 75.00000000000001 53.57Q79.65 53.22, 80.00000000000001 57.87Q89.75 59.28, 88.33333333333334 69.03Q89.03 61.39, 96.66666666666667 62.08Q103.96 64.38, 101.66666666666667 71.67z" fill="rgba(45,48,46,1)"></path>
        <path d="M105 100L0 100 L0 73.42Q11.98 77.06, 8.333333333333334 89.04Q3.75 76.13, 16.666666666666668 71.55Q26.09 72.64, 25 82.06Q24.25 72.97, 33.333333333333336 72.22Q36.58 70.47, 38.333333333333336 73.71Q46.04 76.42, 43.333333333333336 84.13Q38.94 74.74, 48.333333333333336 70.35Q56.04 73.06, 53.333333333333336 80.77Q54.24 73.34, 61.66666666666667 74.25Q69.47 77.05, 66.66666666666667 84.85Q64.64 77.82, 71.66666666666667 75.8Q78.42 77.55, 76.66666666666667 84.3Q80.08 82.71, 81.66666666666667 86.12Q80.86 80.31, 86.66666666666667 79.51Q91.25 79.09, 91.66666666666667 83.68Q96.04 79.72, 100 84.1Q104.84 83.94, 105 88.79z" fill="rgba(85,76,85,1)"></path>
        <path d="M101.66666666666666 100L0 100 L0 100.05Q2.9 97.95, 5 100.85Q8.86 96.38, 13.333333333333334 100.24Q12.39 90.96, 21.666666666666668 90.01Q25.88 89.22, 26.666666666666668 93.43Q34.2 95.96, 31.666666666666668 103.49Q34.47 97.96, 40 100.76Q36.66 89.09, 48.333333333333336 85.75Q56.47 85.55, 56.66666666666667 93.69Q66.45 95.14, 65 104.92Q57.67 92.59, 70 85.27Q72.58 82.84, 75 85.42Q82.64 88.06, 80 95.69Q85.74 96.43, 85 102.17Q80.29 89.13, 93.33333333333333 84.42Q101.33 84.08, 101.66666666666666 92.07z" fill="rgba(87,72,71,1)"></path>
    </g>
</svg>
